<?xml version="1.0" standalone="no"?><!DOCTYPE svg PUBLIC "-//W3C//DTD SVG 1.1//EN" "http://www.w3.org/Graphics/SVG/1.1/DTD/svg11.dtd"><svg t="1766590716223" class="icon" viewBox="0 0 1024 1024" version="1.1" xmlns="http://www.w3.org/2000/svg" p-id="18433" xmlns:xlink="http://www.w3.org/1999/xlink" width="200" height="200"><path d="M514.3625 80.2203125c204.4546875-0.39375 380.75625 143.4234375 421.4109375 343.74375 40.6546875 200.3203125-65.6578125 401.5265625-254.0671875 480.8671875-218.4328125 92.4328125-470.4328125-9.7453125-562.865625-228.178125-92.4328125-218.4328125 9.7453125-470.4328125 228.178125-562.865625a430.171875 430.171875 0 0 1 167.34375-33.5671875m0-71.5640625C276.14375 8.65625 70.9015625 176.590625 23.6515625 410.084375c-47.25 233.49375 76.6828125 467.971875 296.1984375 560.503125 254.75625 107.3953125 548.3953125-12.009375 655.8890625-266.765625C1083.134375 449.065625 963.63125 155.4265625 708.875 48.03125 647.3515625 22.04375 581.2015625 8.65625 514.3625 8.65625z m0 0" p-id="18434"></path><path d="M514.3625 776.8625v-71.5640625c93.7125 0.590625 174.7265625-65.165625 193.33125-157.0078125C726.2984375 456.546875 677.375 364.3109375 590.8484375 328.38125c-48.7265625-20.475-103.6546875-20.475-152.38125 0-72.84375 30.6140625-120.290625 101.8828125-120.1921875 180.928125h-71.5640625c0-107.49375 64.18125-204.6515625 163.1109375-246.7828125C510.03125 219.903125 626.1875 242.54375 703.0671875 319.71875c76.78125 76.3875 99.815625 191.559375 58.471875 291.6703125-41.2453125 100.209375-138.8953125 165.4734375-247.1765625 165.4734375z m0 0" p-id="18435"></path><path d="M442.7984375 509.309375c0 39.4734375 31.9921875 71.5640625 71.5640625 71.5640625 39.4734375 0 71.5640625-31.9921875 71.5640625-71.5640625 0-39.4734375-31.9921875-71.5640625-71.5640625-71.5640625-39.4734375 0.0984375-71.5640625 32.090625-71.5640625 71.5640625z m0 0" p-id="18436"></path><path d="M299.76875 903.453125c-2.559375-162.815625 68.4140625-318.0515625 193.134375-422.690625l43.6078125 56.503125C430.5921875 628.7140625 370.25 762.096875 371.3328125 901.9765625l-71.5640625 1.4765625z m0 0" p-id="18437"></path></svg>